<svg width="41" height="41" viewBox="0 0 41 41" fill="none" xmlns="http://www.w3.org/2000/svg">
<rect x="0.41" y="0.41" width="40.18" height="40.18" rx="7.2775" fill="#EFEFEF" stroke="#AEAEAE" stroke-width="0.82" stroke-dasharray="4.92 4.92"/>
<path d="M27.8204 18.8519C22.4002 18.1073 17.7262 22.1319 18.0402 27.4701M15.9902 17.2201C15.9902 17.655 16.163 18.0722 16.4706 18.3797C16.7781 18.6873 17.1953 18.8601 17.6302 18.8601C18.0652 18.8601 18.4823 18.6873 18.7899 18.3797C19.0974 18.0722 19.2702 17.655 19.2702 17.2201C19.2702 16.7851 19.0974 16.368 18.7899 16.0604C18.4823 15.7529 18.0652 15.5801 17.6302 15.5801C17.1953 15.5801 16.7781 15.7529 16.4706 16.0604C16.163 16.368 15.9902 16.7851 15.9902 17.2201Z" stroke="black" stroke-width="1.23" stroke-linecap="round" stroke-linejoin="round"/>
<path d="M13.1201 21.3742C15.3997 21.0585 17.4456 22.1597 18.5518 23.9162" stroke="black" stroke-width="1.23" stroke-linecap="round" stroke-linejoin="round"/>
<path d="M13.1201 20.5001C13.1201 17.0209 13.1201 15.2816 14.2009 14.2009C15.2816 13.1201 17.0217 13.1201 20.5001 13.1201C23.9794 13.1201 25.7186 13.1201 26.7994 14.2009C27.8801 15.2816 27.8801 17.0217 27.8801 20.5001C27.8801 23.9794 27.8801 25.7186 26.7994 26.7994C25.7186 27.8801 23.9786 27.8801 20.5001 27.8801C17.0209 27.8801 15.2816 27.8801 14.2009 26.7994C13.1201 25.7186 13.1201 23.9786 13.1201 20.5001Z" stroke="black" stroke-width="1.23" stroke-linecap="round" stroke-linejoin="round"/>
</svg>
