<svg width="295" height="295" viewBox="0 0 295 295" fill="none" xmlns="http://www.w3.org/2000/svg">
<rect x="0.5" y="0.5" width="294" height="294" rx="24.5" fill="#EFEFEF" stroke="#AEAEAE" stroke-dasharray="4 4"/>
<path d="M167.65 143.269C152.915 141.245 140.209 152.186 141.063 166.698M135.49 138.833C135.49 140.016 135.959 141.15 136.796 141.986C137.632 142.822 138.766 143.292 139.948 143.292C141.131 143.292 142.264 142.822 143.101 141.986C143.937 141.15 144.406 140.016 144.406 138.833C144.406 137.651 143.937 136.517 143.101 135.681C142.264 134.845 141.131 134.375 139.948 134.375C138.766 134.375 137.632 134.845 136.796 135.681C135.959 136.517 135.49 137.651 135.49 138.833Z" stroke="black" stroke-width="3.34375" stroke-linecap="round" stroke-linejoin="round"/>
<path d="M127.688 150.126C133.885 149.267 139.446 152.261 142.453 157.036" stroke="black" stroke-width="3.34375" stroke-linecap="round" stroke-linejoin="round"/>
<path d="M127.688 147.75C127.688 138.292 127.687 133.564 130.626 130.626C133.564 127.687 138.294 127.688 147.75 127.688C157.208 127.688 161.936 127.687 164.874 130.626C167.812 133.564 167.813 138.294 167.813 147.75C167.813 157.208 167.812 161.936 164.874 164.874C161.936 167.812 157.206 167.813 147.75 167.813C138.292 167.813 133.564 167.812 130.626 164.874C127.687 161.936 127.688 157.206 127.688 147.75Z" stroke="black" stroke-width="3.34375" stroke-linecap="round" stroke-linejoin="round"/>
</svg>
