<svg width="32" height="32" viewBox="0 0 32 32" fill="none" xmlns="http://www.w3.org/2000/svg">
<circle cx="16.4134" cy="15.9998" r="15.471" fill="black"/>
<path d="M12.7083 10.2577C12.7081 10.6508 12.5518 11.0277 12.2737 11.3055C11.9956 11.5833 11.6186 11.7393 11.2255 11.7391C10.8324 11.7389 10.4555 11.5825 10.1777 11.3044C9.8999 11.0264 9.74394 10.6493 9.74414 10.2562C9.74434 9.86317 9.90067 9.48628 10.1788 9.20847C10.4568 8.93066 10.8339 8.77471 11.227 8.7749C11.62 8.7751 11.9969 8.93143 12.2747 9.20952C12.5525 9.4876 12.7085 9.86465 12.7083 10.2577ZM12.7528 12.8365H9.7886V22.1144H12.7528V12.8365ZM17.4361 12.8365H14.4868V22.1144H17.4065V17.2457C17.4065 14.5335 20.9413 14.2816 20.9413 17.2457V22.1144H23.8684V16.2379C23.8684 11.6657 18.6366 11.8361 17.4065 14.0815L17.4361 12.8365Z" fill="white"/>
</svg>
