<svg width="34" height="16" viewBox="0 0 34 16" fill="none" xmlns="http://www.w3.org/2000/svg">
<path d="M19.3864 4.42028L19.7273 3.90891C20.5859 2.7641 21.7829 1.91846 23.1489 1.49178C24.5148 1.06509 25.9803 1.079 27.3379 1.53153C28.6955 1.98405 29.8763 2.85226 30.713 4.01316C31.5497 5.17406 32 6.56881 32 7.99982C32 9.43084 31.5497 10.8256 30.713 11.9865C29.8763 13.1474 28.6955 14.0156 27.3379 14.4681C25.9803 14.9206 24.5148 14.9346 23.1489 14.5079C21.7829 14.0812 20.5859 13.2355 19.7273 12.0907L14.2727 3.90891C13.4141 2.7641 12.2171 1.91846 10.8511 1.49178C9.48522 1.06509 8.01967 1.079 6.66208 1.53153C5.3045 1.98405 4.12372 2.85226 3.28699 4.01316C2.45025 5.17406 2 6.56881 2 7.99982C2 9.43084 2.45025 10.8256 3.28699 11.9865C4.12372 13.1474 5.3045 14.0156 6.66208 14.4681C8.01967 14.9206 9.48522 14.9346 10.8511 14.5079C12.2171 14.0812 13.4141 13.2355 14.2727 12.0907L14.7282 11.4089" stroke="white" stroke-width="2.04545" stroke-linecap="round" stroke-linejoin="round"/>
</svg>
